# xmcd
#
# Track frame offsets:
#	150
#	21833
#	37836
#	60485
#	82608
#	102254
#	123065
#	144217
#	163531
#	181840
#	201472
#	221589
#
# Disc length: 3231 seconds
#
# Revision: 2
# Processed by: cddbd v1.5.2PL0 Copyright (c) Steve Scherf et al.
# Submitted via: EasyCDDAExtractor 15.3.0.1
#
DISCID=8f0c9d0c
DTITLE=Alex Ubago - Aviones De Cristal
DYEAR=2006
DGENRE=Latin
TTITLE0=Sigo Buscando
TTITLE1=Viajar Contigo
TTITLE2=Cada Dia
TTITLE3=La Estacion
TTITLE4=Maria
TTITLE5=Aviones De Cristal
TTITLE6=Si Tu Me Llevas
TTITLE7=El Unico Habitante
TTITLE8=No Dices Nada
TTITLE9=Reinas De La Fiesta
TTITLE10=Instantes
TTITLE11=Como En Los Sueños
EXTD=
EXTT0=
EXTT1=
EXTT2=
EXTT3=
EXTT4=
EXTT5=
EXTT6=
EXTT7=
EXTT8=
EXTT9=
EXTT10=
EXTT11=
PLAYORDER=
